<?xml version="1.0" encoding="UTF-8"?>
<!DOCTYPE svg PUBLIC "-//W3C//DTD SVG 1.1//EN" "http://www.w3.org/Graphics/SVG/1.1/DTD/svg11.dtd">
<!-- Creator: CorelDRAW X8 -->
<svg xmlns="http://www.w3.org/2000/svg" xml:space="preserve" width="20.63mm" height="14.5111mm" version="1.1" style="shape-rendering:geometricPrecision; text-rendering:geometricPrecision; image-rendering:optimizeQuality; fill-rule:evenodd; clip-rule:evenodd"
viewBox="0 0 44724 31459"
 xmlns:xlink="http://www.w3.org/1999/xlink">
 <defs>
  <style type="text/css">
   <![CDATA[
    .fil0 {fill:white}
    .fil1 {fill:#1B1F2A;fill-rule:nonzero}
   ]]>
  </style>
 </defs>
 <g id="Слой_x0020_1">
  <metadata id="CorelCorpID_0Corel-Layer"/>
  <g id="_1220258576">
   <polygon class="fil0" points="325,4391 38473,4391 38473,31134 325,31134 "/>
   <path class="fil1" d="M325 4066l38148 0c180,0 325,146 325,325l0 26743c0,179 -145,325 -325,325l-38148 0c-179,0 -325,-146 -325,-325l0 -26743c0,-179 146,-325 325,-325zm37823 651l-37498 0 0 26092 37498 0 0 -26092z"/>
   <path class="fil1" d="M12981 15626c0,-179 146,-325 325,-325 180,0 325,146 325,325l0 9153 14744 0 0 -9143c0,-180 145,-325 325,-325 179,0 325,145 325,325l0 9468c0,179 -146,325 -325,325l-15394 0c-179,0 -325,-146 -325,-325l0 -9478z"/>
   <rect class="fil0" x="16091" y="18322" width="3012" height="6782"/>
   <path class="fil1" d="M16417 24779l2362 0 0 -6131 -2362 0 0 6131zm2687 650l-3013 0c-179,0 -325,-146 -325,-325l0 -6782c0,-179 146,-325 325,-325l3013 0c179,0 325,146 325,325l0 6782c0,179 -146,325 -325,325z"/>
   <rect class="fil0" x="21662" y="18322" width="4526" height="3391"/>
   <path class="fil1" d="M21987 21388l3876 0 0 -2740 -3876 0 0 2740zm4201 650l-4526 0c-180,0 -325,-145 -325,-325l0 -3391c0,-179 145,-325 325,-325l4526 0c179,0 325,146 325,325l0 3391c0,180 -146,325 -325,325z"/>
   <path class="fil1" d="M12138 16809c-149,100 -351,61 -451,-88 -100,-148 -61,-350 88,-451l9039 -6118c115,-78 263,-72 370,4l9033 6114c149,101 188,303 88,451 -100,149 -302,188 -451,88l-8858 -5996 -8858 5996z"/>
   <rect class="fil0" x="28700" y="17437" width="4178" height="7667"/>
   <path class="fil1" d="M29025 24779l3528 0 0 -7017 -3528 0 0 7017zm3853 650l-4178 0c-180,0 -325,-146 -325,-325l0 -7667c0,-179 145,-325 325,-325l4178 0c179,0 325,146 325,325l0 7667c0,179 -146,325 -325,325z"/>
   <rect class="fil0" x="5921" y="17437" width="7385" height="7667"/>
   <path class="fil1" d="M6246 24779l6735 0 0 -7017 -6735 0 0 7017zm7060 650l-7385 0c-180,0 -326,-146 -326,-325l0 -7667c0,-179 146,-325 326,-325l7385 0c180,0 325,146 325,325l0 7667c0,179 -145,325 -325,325z"/>
   <rect class="fil0" x="5921" y="24400" width="7385" height="704"/>
   <path class="fil1" d="M6246 24779l6735 0 0 -54 -6735 0 0 54zm7060 650l-7385 0c-180,0 -326,-146 -326,-325l0 -704c0,-180 146,-326 326,-326l7385 0c180,0 325,146 325,326l0 704c0,179 -145,325 -325,325z"/>
   <rect class="fil0" x="5921" y="17437" width="7385" height="704"/>
   <path class="fil1" d="M6246 17816l6735 0 0 -54 -6735 0 0 54zm7060 650l-7385 0c-180,0 -326,-145 -326,-325l0 -704c0,-179 146,-325 326,-325l7385 0c180,0 325,146 325,325l0 704c0,180 -145,325 -325,325z"/>
   <path class="fil0" d="M34731 12149l-2155 -2155 9387 -9387c615,-433 1452,-360 1983,171 532,532 604,1369 172,1984l-9387 9387z"/>
   <path class="fil1" d="M34501 12379l-2155 -2155c-127,-127 -127,-333 0,-460l9387 -9387c19,-20 40,-36 62,-49 368,-252 800,-357 1219,-321 425,37 839,220 1161,541l2 2c320,322 503,736 540,1161 37,425 -72,865 -334,1237l-36 43 -9386 9388c-127,127 -334,127 -460,0zm-1465 -2385l1695 1695 9138 -9139c158,-237 224,-514 200,-783 -24,-279 -143,-550 -352,-759 -210,-210 -480,-329 -759,-353 -270,-23 -547,42 -785,201l-9137 9138z"/>
   <path class="fil1" d="M40810 1760c-127,-127 -127,-334 0,-460 127,-127 333,-127 460,0l2155 2155c127,126 127,333 0,460 -127,126 -333,126 -460,0l-2155 -2155z"/>
   <path class="fil1" d="M37904 4666c-127,-127 -127,-333 0,-460 127,-127 333,-127 460,0l2155 2155c127,127 127,333 0,460 -127,127 -333,127 -460,0l-2155 -2155z"/>
   <path class="fil1" d="M31729 12535c127,-127 333,-127 460,0 127,127 127,333 0,460l-701 701c-126,127 -333,127 -460,0 -126,-127 -126,-333 0,-460l701 -701z"/>
   <polygon class="fil0" points="32576,9994 34731,12149 31959,12765 "/>
   <path class="fil1" d="M32805 9764l2156 2155c126,127 126,333 0,460 -53,52 -119,83 -187,92l-2745 610c-174,39 -348,-72 -386,-246 -10,-48 -10,-95 0,-140l616 -2771c39,-174 212,-285 386,-246 63,13 117,44 160,86zm1278 2197l-1320 -1319 -377 1697 1697 -378z"/>
  </g>
 </g>
</svg>
