<?xml version="1.0" encoding="UTF-8"?>
<!DOCTYPE svg PUBLIC "-//W3C//DTD SVG 1.1//EN" "http://www.w3.org/Graphics/SVG/1.1/DTD/svg11.dtd">
<!-- Creator: CorelDRAW X8 -->
<svg xmlns="http://www.w3.org/2000/svg" xml:space="preserve" width="18.6754mm" height="13.4143mm" version="1.1" style="shape-rendering:geometricPrecision; text-rendering:geometricPrecision; image-rendering:optimizeQuality; fill-rule:evenodd; clip-rule:evenodd"
viewBox="0 0 70182 50411"
 xmlns:xlink="http://www.w3.org/1999/xlink">
 <defs>
  <style type="text/css">
   <![CDATA[
    .fil1 {fill:#1B1F2A;fill-rule:nonzero}
    .fil0 {fill:#1B1F2A;fill-rule:nonzero}
   ]]>
  </style>
 </defs>
 <g id="Слой_x0020_1">
  <metadata id="CorelCorpID_0Corel-Layer"/>
  <g id="_1181392448">
   <path class="fil0" d="M6799 0l56584 0c1868,0 3568,765 4801,1998 1233,1230 1998,2931 1998,4801l0 36813c0,1870 -765,3571 -1996,4802 -1232,1232 -2933,1997 -4803,1997l-56584 0c-1870,0 -3571,-765 -4802,-1997l-30 -32c-1215,-1231 -1967,-2918 -1967,-4770l0 -36813c0,-1867 765,-3567 1997,-4800l3 -3c1233,-1232 2932,-1996 4799,-1996zm56584 1127l-56584 0c-1560,0 -2979,638 -4005,1665 -1029,1028 -1667,2447 -1667,4007l0 36813c0,1548 628,2956 1641,3980l26 25c1028,1028 2446,1667 4005,1667l56584 0c1559,0 2977,-639 4005,-1667 1028,-1028 1667,-2447 1667,-4005l0 -36813c0,-1559 -639,-2977 -1667,-4005 -1026,-1029 -2445,-1667 -4005,-1667z"/>
   <path class="fil1" d="M2027 14405l11996 0c312,0 564,252 564,564l0 20474c0,311 -252,564 -564,564l-11996 0c-311,0 -564,-253 -564,-564l0 -20474c0,-312 253,-564 564,-564zm11433 1127l-10870 0 0 19347 10870 0 0 -19347z"/>
   <path class="fil1" d="M56159 14405l11997 0c311,0 563,252 563,564l0 20474c0,311 -252,564 -563,564l-11997 0c-311,0 -564,-253 -564,-564l0 -20474c0,-312 253,-564 564,-564zm11433 1127l-10869 0 0 19347 10869 0 0 -19347z"/>
   <path class="fil1" d="M34527 2027c0,-311 253,-564 564,-564 311,0 564,253 564,564l0 46357c0,311 -253,564 -564,564 -311,0 -564,-253 -564,-564l0 -46357z"/>
   <path class="fil1" d="M35091 12462c3519,0 6706,1427 9011,3732 2306,2306 3733,5493 3733,9012 0,3519 -1427,6705 -3733,9011 -2305,2306 -5492,3732 -9011,3732 -3519,0 -6706,-1426 -9011,-3732 -2306,-2306 -3733,-5492 -3733,-9011 0,-3519 1427,-6706 3733,-9012 2305,-2305 5492,-3732 9011,-3732zm8214 4530c-2102,-2102 -5006,-3403 -8214,-3403 -3207,0 -6112,1301 -8214,3403 -2102,2102 -3402,5006 -3402,8214 0,3207 1300,6112 3402,8214 2102,2101 5007,3402 8214,3402 3208,0 6112,-1301 8214,-3402 2102,-2102 3402,-5007 3402,-8214 0,-3208 -1300,-6112 -3402,-8214z"/>
   <path class="fil1" d="M6799 1463l56584 0c1468,0 2803,601 3769,1567l29 31c949,964 1538,2286 1538,3738l0 36813c0,1466 -601,2800 -1567,3767 -969,968 -2303,1569 -3769,1569l-56584 0c-1466,0 -2800,-601 -3767,-1567 -968,-967 -1569,-2301 -1569,-3769l0 -36813c0,-1468 601,-2802 1567,-3769 967,-966 2301,-1567 3769,-1567zm56584 1128l-56584 0c-1156,0 -2209,474 -2971,1237 -763,762 -1237,1815 -1237,2971l0 36813c0,1156 474,2209 1237,2971 761,763 1814,1237 2971,1237l56584 0c1157,0 2210,-474 2973,-1235 762,-763 1235,-1816 1235,-2973l0 -36813c0,-1144 -463,-2186 -1209,-2946l-27 -25c-763,-763 -1816,-1237 -2972,-1237z"/>
  </g>
 </g>
</svg>
