<?xml version="1.0" encoding="UTF-8"?>
<!DOCTYPE svg PUBLIC "-//W3C//DTD SVG 1.1//EN" "http://www.w3.org/Graphics/SVG/1.1/DTD/svg11.dtd">
<!-- Creator: CorelDRAW X8 -->
<svg xmlns="http://www.w3.org/2000/svg" xml:space="preserve" width="12.99mm" height="12.6039mm" version="1.1" style="shape-rendering:geometricPrecision; text-rendering:geometricPrecision; image-rendering:optimizeQuality; fill-rule:evenodd; clip-rule:evenodd"
viewBox="0 0 219536 213011"
 xmlns:xlink="http://www.w3.org/1999/xlink">
 <defs>
  <style type="text/css">
   <![CDATA[
    .fil0 {fill:white}
    .fil2 {fill:#1B1F2A;fill-rule:nonzero}
    .fil1 {fill:#1B1F2A;fill-rule:nonzero}
   ]]>
  </style>
 </defs>
 <g id="Слой_x0020_1">
  <metadata id="CorelCorpID_0Corel-Layer"/>
  <path class="fil0" d="M79276 191361l130571 0c3936,0 7154,-3218 7154,-7154l0 -174518c0,-3936 -3218,-7154 -7154,-7154l-130571 0c-3936,0 -7154,3218 -7154,7154l0 174518c0,3936 3218,7154 7154,7154z"/>
  <path class="fil1" d="M79276 188826l130571 0c1266,0 2423,-522 3260,-1359 837,-836 1359,-1994 1359,-3260l0 -174518c0,-1268 -522,-2424 -1359,-3260 -837,-837 -1994,-1359 -3260,-1359l-130571 0c-1267,0 -2423,522 -3260,1359 -836,836 -1359,1992 -1359,3260l0 174518c0,1266 523,2424 1359,3260 837,837 1993,1359 3260,1359zm130571 5070l-130571 0c-2668,0 -5093,-1090 -6846,-2842 -1753,-1753 -2843,-4180 -2843,-6847l0 -174518c0,-2669 1090,-5094 2843,-6846 1753,-1753 4178,-2843 6846,-2843l130571 0c2667,0 5094,1090 6846,2843 1753,1752 2843,4177 2843,6846l0 174518c0,2667 -1090,5094 -2843,6847 -1752,1752 -4179,2842 -6846,2842z"/>
  <path class="fil0" d="M65273 199506l130570 0c3936,0 7154,-3218 7154,-7154l0 -174519c0,-3936 -3218,-7154 -7154,-7154l-130570 0c-3936,0 -7154,3218 -7154,7154l0 174519c0,3936 3218,7154 7154,7154z"/>
  <path class="fil1" d="M65273 196970l130570 0c1266,0 2424,-522 3260,-1358 837,-837 1359,-1995 1359,-3260l0 -174519c0,-1267 -522,-2423 -1359,-3260 -836,-836 -1994,-1359 -3260,-1359l-130570 0c-1268,0 -2424,523 -3260,1359 -837,837 -1359,1993 -1359,3260l0 174519c0,1265 522,2423 1359,3260 836,836 1992,1358 3260,1358zm130570 5071l-130570 0c-2669,0 -5094,-1090 -6847,-2843 -1752,-1753 -2842,-4180 -2842,-6846l0 -174519c0,-2668 1090,-5093 2842,-6846 1753,-1753 4178,-2843 6847,-2843l130570 0c2667,0 5094,1090 6847,2843 1752,1753 2842,4178 2842,6846l0 174519c0,2666 -1090,5093 -2842,6846 -1753,1753 -4180,2843 -6847,2843z"/>
  <path class="fil0" d="M51384 207738l130571 0c3936,0 7148,-3218 7153,-7154l171 -151537 -28457 -30135 -109438 0c-3933,0 -7154,3221 -7154,7153l0 174519c0,3936 3218,7154 7154,7154z"/>
  <path class="fil1" d="M51384 205203l130571 0c1267,0 2420,-517 3256,-1347 845,-845 1371,-2008 1373,-3272l169 -150530 -27014 -28607 -108355 0c-1273,0 -2429,518 -3258,1350 -842,840 -1361,1996 -1361,3268l0 174519c0,1266 522,2423 1359,3260 836,836 1992,1359 3260,1359zm130571 5070l-130571 0c-2669,0 -5094,-1090 -6846,-2843 -1753,-1752 -2843,-4179 -2843,-6846l0 -174519c0,-2656 1090,-5078 2844,-6834 1766,-1764 4188,-2855 6845,-2855l110523 0 29899 31663 -173 152545c-3,2667 -1090,5090 -2836,6838 -1764,1761 -4182,2851 -6842,2851z"/>
  <path class="fil1" d="M163357 18526l0 21722c0,1726 703,3294 1832,4421 1138,1139 2706,1843 4432,1843l19658 0 0 5070 -19658 0c-3110,0 -5943,-1275 -7998,-3326 -2061,-2066 -3336,-4900 -3336,-8008l0 -21722 5070 0z"/>
  <g id="_961473120">
   <path class="fil0" d="M77907 118303l16799 16799 -73177 73180c-4796,3370 -11319,2805 -15462,-1339 -4144,-4142 -4708,-10667 -1338,-15462l73178 -73178z"/>
   <path class="fil2" d="M79700 116509l16799 16799c989,989 989,2598 0,3587l-73176 73180c-151,150 -315,277 -491,382 -2869,1964 -6236,2780 -9498,2498 -3314,-287 -6540,-1714 -9050,-4218l-17 -17c-2499,-2508 -3924,-5731 -4211,-9045 -288,-3320 563,-6745 2602,-9649l281 -335 73175 -73182c989,-988 2598,-988 3586,0zm11420 18593l-13213 -13213 -71240 71240c-1234,1851 -1742,4010 -1561,6110 187,2175 1115,4284 2744,5911 1638,1640 3745,2567 5920,2755 2101,181 4264,-331 6115,-1565l71235 -71238z"/>
   <path class="fil2" d="M30515 199293c989,988 989,2597 0,3586 -988,989 -2597,989 -3586,0l-16799 -16799c-989,-989 -989,-2598 0,-3586 989,-989 2598,-989 3586,0l16799 16799z"/>
   <path class="fil2" d="M53169 176638c988,988 988,2597 0,3586 -989,989 -2598,989 -3587,0l-16799 -16799c-988,-989 -988,-2598 0,-3586 989,-989 2598,-989 3587,0l16799 16799z"/>
   <path class="fil2" d="M101304 115291c-988,989 -2597,989 -3586,0 -989,-989 -989,-2598 0,-3586l5464 -5464c989,-989 2597,-989 3586,0 989,988 989,2597 0,3586l-5464 5464z"/>
   <polygon class="fil0" points="94706,135102 77907,118303 99511,113498 "/>
   <path class="fil2" d="M92917 136891l-16803 -16795c-988,-989 -988,-2598 0,-3587 409,-408 925,-647 1457,-718l21396 -4759c1360,-299 2711,561 3010,1922 81,370 78,740 0,1088l-4805 21604c-299,1360 -1649,2220 -3010,1921 -488,-108 -911,-349 -1245,-676zm-9960 -17125l10286 10286 2942 -13228 -13228 2942z"/>
  </g>
 </g>
</svg>
