<?xml version="1.0" encoding="UTF-8"?>
<!DOCTYPE svg PUBLIC "-//W3C//DTD SVG 1.1//EN" "http://www.w3.org/Graphics/SVG/1.1/DTD/svg11.dtd">
<!-- Creator: CorelDRAW X8 -->
<svg xmlns="http://www.w3.org/2000/svg" xml:space="preserve" width="20.1737mm" height="14.7668mm" version="1.1" style="shape-rendering:geometricPrecision; text-rendering:geometricPrecision; image-rendering:optimizeQuality; fill-rule:evenodd; clip-rule:evenodd"
viewBox="0 0 69618 50959"
 xmlns:xlink="http://www.w3.org/1999/xlink">
 <defs>
  <style type="text/css">
   <![CDATA[
    .fil0 {fill:#1B1F2A}
    .fil2 {fill:white}
    .fil1 {fill:#1B1F2A;fill-rule:nonzero}
   ]]>
  </style>
 </defs>
 <g id="Слой_x0020_1">
  <metadata id="CorelCorpID_0Corel-Layer"/>
  <g id="_1181386112">
   <polygon class="fil0" points="4513,30706 21185,30706 21185,39046 4513,39046 "/>
   <path class="fil1" d="M4513 30189l16672 0c286,0 518,231 518,517l0 8340c0,285 -232,517 -518,517l-16672 0c-286,0 -518,-232 -518,-517l0 -8340c0,-286 232,-517 518,-517zm16155 1035l-15638 0 0 7304 15638 0 0 -7304z"/>
   <path class="fil0" d="M30771 39046l0 -24212c0,-1607 1315,-2922 2922,-2922l5418 0 0 24212c0,1607 -1315,2922 -2922,2922l-5418 0z"/>
   <path class="fil1" d="M30254 39046l0 -24212c0,-944 387,-1804 1009,-2428l4 -3c624,-622 1482,-1008 2426,-1008l5418 0c286,0 518,232 518,517l0 24212c0,944 -387,1804 -1010,2428l-3 3c-624,622 -1483,1008 -2427,1008l-5418 0c-285,0 -517,-232 -517,-517zm1035 -24212l0 23694 4900 0c662,0 1263,-270 1698,-705 436,-436 706,-1037 706,-1699l0 -23694 -4900 0c-662,0 -1263,270 -1697,705 -437,436 -707,1037 -707,1699z"/>
   <polygon class="fil0" points="25142,29004 23031,29004 23031,40748 25142,40748 "/>
   <path class="fil1" d="M24625 29522l-1077 0 0 10708 1077 0 0 -10708zm-1594 -1035l2111 0c286,0 518,231 518,517l0 11744c0,285 -232,517 -518,517l-2111 0c-286,0 -518,-232 -518,-517l0 -11744c0,-286 232,-517 518,-517z"/>
   <polygon class="fil0" points="2629,29004 518,29004 518,40748 2629,40748 "/>
   <path class="fil1" d="M2112 29522l-1077 0 0 10708 1077 0 0 -10708zm-1594 -1035l2111 0c286,0 518,231 518,517l0 11744c0,285 -232,517 -518,517l-2111 0c-286,0 -518,-232 -518,-517l0 -11744c0,-286 232,-517 518,-517z"/>
   <polygon class="fil0" points="27026,30706 34039,30706 34039,39046 27026,39046 "/>
   <path class="fil1" d="M27026 30189l7013 0c285,0 517,231 517,517l0 8340c0,285 -232,517 -517,517l-7013 0c-286,0 -518,-232 -518,-517l0 -8340c0,-286 232,-517 518,-517zm6495 1035l-5977 0 0 7304 5977 0 0 -7304z"/>
   <polygon class="fil0" points="65106,11912 48433,11912 48433,20252 65106,20252 "/>
   <path class="fil1" d="M64588 12430l-15637 0 0 7304 15637 0 0 -7304zm-16155 -1035l16673 0c285,0 517,232 517,517l0 8340c0,286 -232,518 -517,518l-16673 0c-286,0 -518,-232 -518,-518l0 -8340c0,-285 232,-517 518,-517z"/>
   <polygon class="fil0" points="44476,10210 46588,10210 46588,21954 44476,21954 "/>
   <path class="fil1" d="M44476 9693l2112 0c285,0 517,232 517,517l0 11744c0,286 -232,518 -517,518l-2112 0c-286,0 -518,-232 -518,-518l0 -11744c0,-285 232,-517 518,-517zm1594 1035l-1076 0 0 10708 1076 0 0 -10708z"/>
   <polygon class="fil0" points="66989,10210 69101,10210 69101,21954 66989,21954 "/>
   <path class="fil1" d="M66989 9693l2112 0c285,0 517,232 517,517l0 11744c0,286 -232,518 -517,518l-2112 0c-286,0 -518,-232 -518,-518l0 -11744c0,-285 232,-517 518,-517zm1594 1035l-1076 0 0 10708 1076 0 0 -10708z"/>
   <polygon class="fil0" points="42592,11912 35580,11912 35580,20252 42592,20252 "/>
   <path class="fil1" d="M42075 12430l-5978 0 0 7304 5978 0 0 -7304zm-6495 -1035l7012 0c286,0 518,232 518,517l0 8340c0,286 -232,518 -518,518l-7012 0c-286,0 -518,-232 -518,-518l0 -8340c0,-285 232,-517 518,-517z"/>
   <path class="fil2" d="M44066 40072l-23897 -23871c-2695,844 -5808,176 -7983,-1999 -1808,-1808 -2574,-4264 -2298,-6618l4273 4247 5717 -1297 1297 -5717 -4300 -4251c2339,-257 4876,482 6669,2276 2186,2185 2849,5316 1995,8001l23922 23866c2721,-813 5808,-142 7972,2021 3137,3136 3137,8222 0,11359 -3137,3137 -8223,3137 -11359,0 -2187,-2186 -2849,-5319 -2008,-8017zm4836 -515c1575,-1575 4128,-1575 5703,1 1575,1574 1575,4127 0,5703 -1575,1576 -4128,1576 -5703,0 -1576,-1576 -1576,-4129 0,-5704z"/>
   <path class="fil1" d="M43485 40221l-23465 -23438c-1375,373 -2839,384 -4237,34 -1449,-363 -2827,-1113 -3964,-2249 -940,-941 -1617,-2052 -2029,-3238 -426,-1228 -565,-2532 -416,-3805 32,-283 289,-487 572,-455 128,15 239,74 320,162l4057 4033 5124 -1162 1161 -5121 -4095 -4048c-203,-200 -206,-527 -6,-730 87,-88 198,-138 312,-151 1276,-141 2608,-2 3858,425 1186,404 2302,1068 3231,1998l4 3c1139,1141 1890,2524 2252,3975 349,1400 334,2867 -43,4239l23491 23437c1387,-359 2850,-363 4243,-10 1443,366 2812,1114 3942,2244 1672,1669 2507,3857 2507,6045 0,2187 -835,4374 -2504,6043l-32 31c-1665,1651 -3840,2476 -6015,2476 -2187,0 -4375,-834 -6044,-2503l-27 -30c-1126,-1135 -1868,-2508 -2229,-3947 -352,-1406 -341,-2879 32,-4258zm-22952 -24386l23881 23855c144,130 207,338 146,536 -401,1284 -436,2676 -104,4002 317,1266 969,2474 1958,3471l26 23c1468,1468 3391,2202 5313,2202 1913,0 3825,-726 5289,-2175l27 -26c1466,-1467 2199,-3390 2199,-5314 0,-1922 -733,-3845 -2200,-5312 -994,-995 -2197,-1653 -3463,-1974 -1315,-333 -2701,-306 -3996,81 -176,52 -373,9 -512,-129l-23922 -23866c-132,-133 -188,-332 -127,-522 405,-1276 443,-2663 114,-3987 -318,-1273 -979,-2490 -1982,-3492 -814,-814 -1792,-1396 -2834,-1752 -733,-250 -1498,-388 -2259,-417l3450 3410c123,121 182,301 141,481l-1296 5718c-43,188 -190,345 -391,390l-5703 1294c-170,42 -358,-2 -491,-135l-3443 -3422c25,753 162,1502 411,2220 359,1034 955,2009 1787,2841 1000,1000 2211,1660 3482,1978 1317,330 2700,294 3981,-106 177,-55 378,-12 518,127zm28002 23357l29 -27c885,-871 2038,-1306 3189,-1306 1165,0 2330,444 3218,1332 888,889 1333,2054 1333,3218 -2,1164 -446,2329 -1333,3216 -888,891 -2054,1335 -3218,1335 -1164,0 -2329,-444 -3217,-1332l-27 -30c-871,-885 -1307,-2038 -1307,-3189 0,-1162 445,-2327 1333,-3217zm733 731c-688,686 -1030,1586 -1030,2486 0,890 336,1780 1006,2464l23 21c687,688 1587,1031 2486,1031 899,0 1799,-343 2485,-1030 689,-687 1033,-1587 1033,-2486 -2,-899 -346,-1799 -1032,-2485 -687,-687 -1587,-1030 -2486,-1030 -890,0 -1780,336 -2463,1006l-22 23z"/>
  </g>
 </g>
</svg>
